%FSLAX34Y34*%
%MOMM*%
%LNSILK_TOP*%
G71*
G01*
%ADD10C,0.150*%
%ADD11C,0.127*%
%ADD12C,0.206*%
%ADD13C,0.159*%
%ADD14C,0.031*%
%LPD*%
G54D10*
X175859Y926100D02*
X175859Y949100D01*
X124759Y949100D01*
X124759Y926100D01*
X175859Y926100D01*
G54D10*
X175859Y931100D02*
X175859Y944100D01*
X170859Y944100D01*
X170859Y931100D01*
X175859Y931100D01*
G54D11*
X128625Y929198D02*
X128625Y936309D01*
G54D11*
X135381Y930531D02*
X134847Y929642D01*
X133781Y929198D01*
X132714Y929198D01*
X131647Y929642D01*
X131114Y930531D01*
X131114Y934976D01*
X131647Y935865D01*
X132714Y936309D01*
X133781Y936309D01*
X134847Y935865D01*
X135381Y934976D01*
G54D11*
X142137Y929198D02*
X137870Y929198D01*
X137870Y929642D01*
X138403Y930531D01*
X141603Y933198D01*
X142137Y934087D01*
X142137Y934976D01*
X141603Y935865D01*
X140537Y936309D01*
X139470Y936309D01*
X138403Y935865D01*
X137870Y934976D01*
G54D11*
X127669Y943664D02*
X130335Y946331D01*
X130335Y939220D01*
G54D11*
X137091Y939220D02*
X132825Y939220D01*
X132825Y939664D01*
X133358Y940553D01*
X136558Y943220D01*
X137091Y944108D01*
X137091Y944997D01*
X136558Y945886D01*
X135491Y946331D01*
X134425Y946331D01*
X133358Y945886D01*
X132825Y944997D01*
G54D11*
X139581Y939220D02*
X139581Y946331D01*
X143314Y946331D01*
G54D11*
X139581Y942775D02*
X143314Y942775D01*
G54D11*
X150069Y944997D02*
X149536Y945886D01*
X148469Y946331D01*
X147403Y946331D01*
X146336Y945886D01*
X145803Y944997D01*
X145803Y942775D01*
X145803Y942331D01*
X147403Y943220D01*
X148469Y943220D01*
X149536Y942775D01*
X150069Y941886D01*
X150069Y940553D01*
X149536Y939664D01*
X148469Y939220D01*
X147403Y939220D01*
X146336Y939664D01*
X145803Y940553D01*
X145803Y942775D01*
G54D11*
X156825Y939220D02*
X152559Y939220D01*
X152559Y939664D01*
X153092Y940553D01*
X156292Y943220D01*
X156825Y944108D01*
X156825Y944997D01*
X156292Y945886D01*
X155225Y946331D01*
X154159Y946331D01*
X153092Y945886D01*
X152559Y944997D01*
G54D11*
X159315Y940553D02*
X159848Y939664D01*
X160915Y939220D01*
X161981Y939220D01*
X163048Y939664D01*
X163581Y940553D01*
X163581Y942775D01*
X163581Y943220D01*
X161981Y942331D01*
X160915Y942331D01*
X159848Y942775D01*
X159315Y943664D01*
X159315Y944997D01*
X159848Y945886D01*
X160915Y946331D01*
X161981Y946331D01*
X163048Y945886D01*
X163581Y944997D01*
X163581Y942775D01*
G54D10*
X43000Y887834D02*
X86000Y887834D01*
X86000Y989734D01*
X43000Y989734D01*
X43000Y887834D01*
G54D10*
X48000Y887834D02*
X81000Y887834D01*
X81000Y892834D01*
X48000Y892834D01*
X48000Y887834D01*
G54D12*
X68155Y924699D02*
X56600Y924699D01*
G54D12*
X65989Y935677D02*
X67433Y934810D01*
X68155Y933077D01*
X68155Y931343D01*
X67433Y929610D01*
X65989Y928743D01*
X58766Y928743D01*
X57322Y929610D01*
X56600Y931343D01*
X56600Y933077D01*
X57322Y934810D01*
X58766Y935677D01*
G54D12*
X68155Y944920D02*
X56600Y944920D01*
X63822Y939720D01*
X65266Y939720D01*
X65266Y946654D01*
G54D10*
X137020Y976859D02*
X137020Y996859D01*
X175020Y996859D01*
X175020Y976859D01*
X137020Y976859D01*
G54D13*
X123062Y986938D02*
X125062Y985826D01*
X125728Y984715D01*
X125728Y982493D01*
G54D13*
X120395Y982493D02*
X120395Y991382D01*
X123728Y991382D01*
X125062Y990826D01*
X125728Y989715D01*
X125728Y988604D01*
X125062Y987493D01*
X123728Y986938D01*
X120395Y986938D01*
G54D13*
X134172Y982493D02*
X128839Y982493D01*
X128839Y983049D01*
X129506Y984160D01*
X133506Y987493D01*
X134172Y988604D01*
X134172Y989715D01*
X133506Y990826D01*
X132172Y991382D01*
X130839Y991382D01*
X129506Y990826D01*
X128839Y989715D01*
G54D14*
X101600Y882650D02*
X101600Y887094D01*
X103156Y887094D01*
G54D14*
X101600Y884872D02*
X103156Y884872D01*
G54D14*
X104045Y885428D02*
X105156Y887094D01*
X105156Y882650D01*
G54D14*
X106978Y882650D02*
X106978Y887094D01*
X108089Y887094D01*
X108534Y886817D01*
X108756Y886261D01*
X108756Y883483D01*
X108534Y882928D01*
X108089Y882650D01*
X106978Y882650D01*
G54D14*
X110978Y882928D02*
X110623Y882650D01*
X110178Y882650D01*
X109734Y882928D01*
X109645Y883483D01*
X109645Y884428D01*
X109867Y884983D01*
X110312Y885150D01*
X110756Y884983D01*
X110978Y884594D01*
X110978Y884039D01*
X109645Y884039D01*
G54D14*
X112978Y884983D02*
X112534Y885150D01*
X112089Y884983D01*
X111867Y884428D01*
X111867Y883317D01*
X112089Y882761D01*
X112534Y882650D01*
X112978Y882761D01*
G54D14*
X115200Y883317D02*
X115200Y884428D01*
X114978Y884983D01*
X114534Y885150D01*
X114089Y884983D01*
X113867Y884428D01*
X113867Y883317D01*
X114089Y882761D01*
X114534Y882650D01*
X114978Y882761D01*
X115200Y883317D01*
G54D14*
X117422Y882650D02*
X117422Y887094D01*
G54D14*
X117422Y884428D02*
X117200Y884983D01*
X116756Y885150D01*
X116311Y884983D01*
X116089Y884428D01*
X116089Y883317D01*
X116311Y882761D01*
X116756Y882650D01*
X117200Y882761D01*
X117422Y883317D01*
G54D14*
X119644Y882928D02*
X119289Y882650D01*
X118844Y882650D01*
X118400Y882928D01*
X118311Y883483D01*
X118311Y884428D01*
X118533Y884983D01*
X118978Y885150D01*
X119422Y884983D01*
X119644Y884594D01*
X119644Y884039D01*
X118311Y884039D01*
G54D14*
X120533Y882650D02*
X120533Y885150D01*
G54D14*
X120533Y884594D02*
X120977Y885150D01*
X121422Y885150D01*
G54D14*
X123244Y887094D02*
X124355Y882650D01*
X125466Y887094D01*
G54D14*
X126355Y885428D02*
X127466Y887094D01*
X127466Y882650D01*
G54D14*
X128355Y882650D02*
X128355Y882650D01*
G54D14*
X131022Y886261D02*
X131022Y883483D01*
X130800Y882928D01*
X130355Y882650D01*
X129911Y882650D01*
X129466Y882928D01*
X129244Y883483D01*
X129244Y886261D01*
X129466Y886817D01*
X129911Y887094D01*
X130355Y887094D01*
X130800Y886817D01*
X131022Y886261D01*
G54D14*
X132844Y884594D02*
X134622Y884594D01*
G54D14*
X136444Y882650D02*
X136444Y887094D01*
X137555Y884317D01*
X138666Y887094D01*
X138666Y882650D01*
G54D14*
X140888Y883317D02*
X140888Y884428D01*
X140666Y884983D01*
X140222Y885150D01*
X139777Y884983D01*
X139555Y884428D01*
X139555Y883317D01*
X139777Y882761D01*
X140222Y882650D01*
X140666Y882761D01*
X140888Y883317D01*
G54D14*
X143110Y882650D02*
X143110Y887094D01*
G54D14*
X143110Y884428D02*
X142888Y884983D01*
X142444Y885150D01*
X141999Y884983D01*
X141777Y884428D01*
X141777Y883317D01*
X141999Y882761D01*
X142444Y882650D01*
X142888Y882761D01*
X143110Y883317D01*
G54D14*
X145332Y882928D02*
X144977Y882650D01*
X144532Y882650D01*
X144088Y882928D01*
X143999Y883483D01*
X143999Y884428D01*
X144221Y884983D01*
X144666Y885150D01*
X145110Y884983D01*
X145332Y884594D01*
X145332Y884039D01*
X143999Y884039D01*
G54D14*
X146221Y882650D02*
X146221Y887094D01*
G54D14*
X147110Y882650D02*
X147110Y887094D01*
G54D14*
X147999Y882650D02*
X147999Y887094D01*
G54D14*
X147999Y884428D02*
X148221Y884983D01*
X148666Y885150D01*
X149110Y884983D01*
X149332Y884428D01*
X149332Y883317D01*
X149110Y882761D01*
X148666Y882650D01*
X148221Y882761D01*
X147999Y883317D01*
G54D14*
X150221Y884872D02*
X150665Y885150D01*
X151199Y885150D01*
X151554Y884594D01*
X151554Y882650D01*
G54D14*
X151554Y883483D02*
X151332Y884039D01*
X150888Y884150D01*
X150443Y884039D01*
X150221Y883483D01*
X150310Y882928D01*
X150665Y882650D01*
X150888Y882650D01*
X150977Y882650D01*
X151332Y882928D01*
X151554Y883483D01*
G54D14*
X152443Y882650D02*
X152443Y887094D01*
G54D14*
X152443Y884428D02*
X152665Y884983D01*
X153110Y885150D01*
X153554Y884983D01*
X153776Y884428D01*
X153776Y882650D01*
G54D14*
X154665Y882650D02*
X154665Y885150D01*
G54D14*
X154665Y884594D02*
X154887Y884983D01*
X155332Y885150D01*
X155776Y884983D01*
X155998Y884594D01*
X155998Y882650D01*
G54D14*
X156887Y884594D02*
X158665Y884594D01*
G54D14*
X159554Y882650D02*
X160665Y887094D01*
X161776Y882650D01*
G54D14*
X159998Y884317D02*
X161332Y884317D01*
G54D14*
X162665Y882650D02*
X162665Y885150D01*
G54D14*
X162665Y884594D02*
X162887Y884983D01*
X163332Y885150D01*
X163776Y884983D01*
X163998Y884594D01*
X163998Y882650D01*
G54D14*
X164887Y882650D02*
X164887Y887094D01*
G54D14*
X165776Y884872D02*
X166220Y885150D01*
X166754Y885150D01*
X167109Y884594D01*
X167109Y882650D01*
G54D14*
X167109Y883483D02*
X166887Y884039D01*
X166443Y884150D01*
X165998Y884039D01*
X165776Y883483D01*
X165865Y882928D01*
X166220Y882650D01*
X166443Y882650D01*
X166532Y882650D01*
X166887Y882928D01*
X167109Y883483D01*
G54D14*
X167998Y881817D02*
X168442Y881539D01*
X168754Y881539D01*
X169198Y881817D01*
X169331Y882372D01*
X169331Y885150D01*
G54D14*
X169331Y884428D02*
X169109Y884983D01*
X168665Y885150D01*
X168220Y884983D01*
X167998Y884428D01*
X167998Y883317D01*
X168220Y882761D01*
X168665Y882650D01*
X169109Y882761D01*
X169331Y883317D01*
G54D14*
X171553Y882928D02*
X171198Y882650D01*
X170753Y882650D01*
X170309Y882928D01*
X170220Y883483D01*
X170220Y884428D01*
X170442Y884983D01*
X170887Y885150D01*
X171331Y884983D01*
X171553Y884594D01*
X171553Y884039D01*
X170220Y884039D01*
G54D14*
X172442Y882650D02*
X172442Y882650D01*
G54D14*
X174664Y882650D02*
X174664Y887094D01*
G54D14*
X174664Y884428D02*
X174442Y884983D01*
X173998Y885150D01*
X173553Y884983D01*
X173331Y884428D01*
X173331Y883317D01*
X173553Y882761D01*
X173998Y882650D01*
X174442Y882761D01*
X174664Y883317D01*
G54D14*
X176886Y882928D02*
X176531Y882650D01*
X176086Y882650D01*
X175642Y882928D01*
X175553Y883483D01*
X175553Y884428D01*
X175775Y884983D01*
X176220Y885150D01*
X176664Y884983D01*
X176886Y884594D01*
X176886Y884039D01*
X175553Y884039D01*
M02*
