%FSLAX34Y34*%
%MOMM*%
%LNCOPPER_TOP*%
G71*
G01*
%ADD10R,0.700X2.200*%
%ADD11R,2.200X0.700*%
%ADD12R,1.300X1.400*%
%ADD13C,0.300*%
%ADD14R,3.300X1.400*%
%ADD15C,0.200*%
%LPD*%
X168859Y964100D02*
G54D10*
D03*
X156159Y964100D02*
G54D10*
D03*
X143459Y964100D02*
G54D10*
D03*
X130759Y964100D02*
G54D10*
D03*
X130759Y910100D02*
G54D10*
D03*
X143459Y910100D02*
G54D10*
D03*
X156159Y910100D02*
G54D10*
D03*
X168859Y910100D02*
G54D10*
D03*
X101000Y894834D02*
G54D11*
D03*
X101000Y907534D02*
G54D11*
D03*
X101000Y920234D02*
G54D11*
D03*
X101000Y932934D02*
G54D11*
D03*
X101000Y945634D02*
G54D11*
D03*
X101000Y958334D02*
G54D11*
D03*
X101000Y971034D02*
G54D11*
D03*
X101000Y983734D02*
G54D11*
D03*
X27000Y983734D02*
G54D11*
D03*
X27000Y971034D02*
G54D11*
D03*
X27000Y958334D02*
G54D11*
D03*
X27000Y945634D02*
G54D11*
D03*
X27000Y932934D02*
G54D11*
D03*
X27000Y920234D02*
G54D11*
D03*
X27000Y907534D02*
G54D11*
D03*
X27000Y894834D02*
G54D11*
D03*
X146520Y986859D02*
G54D12*
D03*
X165520Y986859D02*
G54D12*
D03*
G54D13*
X168745Y970984D02*
X168745Y983634D01*
X165520Y986859D01*
G54D13*
X146520Y986859D02*
X133820Y986859D01*
X130645Y983684D01*
X130645Y964213D01*
X130759Y964100D01*
G54D13*
X92545Y907484D02*
X92545Y920184D01*
G54D13*
X92545Y932884D02*
X92545Y945584D01*
G54D13*
X92545Y958284D02*
X92545Y970984D01*
G54D13*
X36586Y907881D02*
X36586Y920581D01*
G54D13*
X36586Y945584D02*
X36586Y932884D01*
G54D13*
X36189Y970588D02*
X36189Y957888D01*
X18726Y986864D02*
G54D14*
D03*
X18726Y938842D02*
G54D14*
D03*
X18726Y913839D02*
G54D14*
D03*
X18726Y891614D02*
G54D14*
D03*
G54D13*
X143345Y958284D02*
X143345Y951934D01*
X136995Y945584D01*
X121120Y945584D01*
X121120Y951934D01*
X114770Y958284D01*
X108420Y958284D01*
G54D13*
X156045Y955109D02*
X156045Y945584D01*
X149695Y939234D01*
X111595Y939234D01*
X108420Y942409D01*
G54D13*
X141361Y899944D02*
X133479Y891425D01*
X111595Y891609D01*
X108420Y894784D01*
G36*
X164539Y983128D02*
X174539Y983128D01*
X174539Y973128D01*
X164539Y973128D01*
X164539Y983128D01*
G37*
G36*
X117311Y915659D02*
X127311Y915659D01*
X127311Y905659D01*
X117311Y905659D01*
X117311Y915659D01*
G37*
G36*
X46270Y988684D02*
X56270Y988684D01*
X56270Y978684D01*
X46270Y978684D01*
X46270Y988684D01*
G37*
G54D13*
X51270Y983684D02*
X35395Y983684D01*
G36*
X74448Y964475D02*
X84448Y964475D01*
X84448Y954475D01*
X74448Y954475D01*
X74448Y964475D01*
G37*
G54D13*
X95720Y983684D02*
X83020Y983684D01*
X76670Y977334D01*
X76670Y961459D01*
G36*
X74578Y945528D02*
X84578Y945528D01*
X84578Y935528D01*
X74578Y935528D01*
X74578Y945528D01*
G37*
X18726Y964639D02*
G54D14*
D03*
G36*
X164242Y928313D02*
X170242Y928313D01*
X170242Y922313D01*
X164242Y922313D01*
X164242Y928313D01*
G37*
G54D15*
X122311Y910659D02*
X130199Y910659D01*
X130759Y910100D01*
G54D15*
X108817Y922963D02*
X116952Y922963D01*
X121617Y927628D01*
X148998Y927628D01*
X156442Y920184D01*
G54D15*
X79578Y940528D02*
X79578Y892274D01*
X81000Y887834D01*
G36*
X76000Y892834D02*
X86000Y892834D01*
X86000Y882834D01*
X76000Y882834D01*
X76000Y892834D01*
G37*
G54D15*
X167242Y925313D02*
X167242Y916885D01*
X167861Y916266D01*
M02*
