%FSLAX34Y34*%
%MOMM*%
%LNSILK_BOTTOM*%
G71*
G01*
%ADD10C,0.150*%
%ADD11C,0.159*%
%ADD12C,0.100*%
%ADD13C,0.175*%
%LPD*%
G54D10*
X26267Y996384D02*
X26267Y913041D01*
X90561Y913041D01*
X90561Y996384D01*
X26267Y996384D01*
G54D11*
X84688Y984478D02*
X84688Y979144D01*
G54D11*
X82465Y981811D02*
X86910Y981811D01*
G54D11*
X84688Y931694D02*
X84688Y926361D01*
G54D11*
X29839Y985192D02*
X30505Y986303D01*
X31839Y986859D01*
X33172Y986859D01*
X34505Y986303D01*
X35172Y985192D01*
X35172Y984081D01*
X34505Y982970D01*
X33172Y982415D01*
X31839Y982415D01*
X30505Y981859D01*
X29839Y980748D01*
X29839Y979636D01*
X30505Y978525D01*
X31839Y977970D01*
X33172Y977970D01*
X34505Y978525D01*
X35172Y979636D01*
G54D11*
X29839Y932805D02*
X30505Y933917D01*
X31839Y934472D01*
X33172Y934472D01*
X34505Y933917D01*
X35172Y932805D01*
X35172Y931694D01*
X34505Y930583D01*
X33172Y930028D01*
X31839Y930028D01*
X30505Y929472D01*
X29839Y928361D01*
X29839Y927250D01*
X30505Y926139D01*
X31839Y925583D01*
X33172Y925583D01*
X34505Y926139D01*
X35172Y927250D01*
G54D10*
X26267Y991225D02*
X90164Y991225D01*
G54D11*
X65514Y951300D02*
X65514Y960189D01*
X62180Y960189D01*
X60847Y959633D01*
X60180Y958522D01*
X60180Y957411D01*
X60847Y956300D01*
X62180Y955744D01*
X60847Y955189D01*
X60180Y954078D01*
X60180Y952967D01*
X60847Y951856D01*
X62180Y951300D01*
X65514Y951300D01*
G54D11*
X65514Y955744D02*
X62180Y955744D01*
G54D11*
X57070Y956856D02*
X53736Y960189D01*
X53736Y951300D01*
G54D10*
X135617Y892628D02*
X121617Y892628D01*
X121617Y927628D01*
X135617Y927628D01*
X135617Y892628D01*
G36*
X135617Y892628D02*
X121617Y892628D01*
X121617Y902628D01*
X135617Y902628D01*
X135617Y892628D01*
G37*
G54D12*
X135617Y892628D02*
X121617Y892628D01*
X121617Y902628D01*
X135617Y902628D01*
X135617Y892628D01*
G54D13*
X123360Y905195D02*
X133137Y905195D01*
X133137Y908862D01*
X132526Y910329D01*
X131304Y911062D01*
X125193Y911062D01*
X123971Y910329D01*
X123360Y908862D01*
X123360Y905195D01*
G54D13*
X133137Y920351D02*
X133137Y914484D01*
X128860Y914484D01*
X128860Y915218D01*
X129471Y916684D01*
X129471Y918151D01*
X128860Y919618D01*
X127637Y920351D01*
X125193Y920351D01*
X123971Y919618D01*
X123360Y918151D01*
X123360Y916684D01*
X123971Y915218D01*
X125193Y914484D01*
G54D10*
X71832Y886372D02*
X71832Y906372D01*
X33832Y906372D01*
X33832Y886372D01*
X71832Y886372D01*
G54D11*
X56819Y911723D02*
X54819Y910612D01*
X54152Y909500D01*
X54152Y907278D01*
G54D11*
X59486Y907278D02*
X59486Y916167D01*
X56152Y916167D01*
X54819Y915612D01*
X54152Y914500D01*
X54152Y913389D01*
X54819Y912278D01*
X56152Y911723D01*
X59486Y911723D01*
G54D11*
X51042Y912834D02*
X47708Y916167D01*
X47708Y907278D01*
G54D10*
X149495Y886495D02*
X171495Y886495D01*
X171495Y924495D01*
X149495Y924495D01*
X149495Y886495D01*
G54D11*
X173322Y902984D02*
X172210Y902317D01*
X171655Y900984D01*
X171655Y899651D01*
X172210Y898317D01*
X173322Y897651D01*
X178877Y897651D01*
X179988Y898317D01*
X180544Y899651D01*
X180544Y900984D01*
X179988Y902317D01*
X178877Y902984D01*
G54D11*
X171655Y911428D02*
X171655Y906095D01*
X172210Y906095D01*
X173322Y906761D01*
X176655Y910761D01*
X177766Y911428D01*
X178877Y911428D01*
X179988Y910761D01*
X180544Y909428D01*
X180544Y908095D01*
X179988Y906761D01*
X178877Y906095D01*
G54D10*
X114260Y939682D02*
X140260Y939682D01*
X140260Y989682D01*
X114260Y989682D01*
X114260Y939682D01*
G54D11*
X127804Y961523D02*
X128471Y960412D01*
X129804Y959856D01*
X131138Y959856D01*
X132471Y960412D01*
X133138Y961523D01*
X133138Y967078D01*
X132471Y968189D01*
X131138Y968745D01*
X129804Y968745D01*
X128471Y968189D01*
X127804Y967078D01*
G54D11*
X124694Y965412D02*
X121360Y968745D01*
X121360Y959856D01*
G54D10*
X152359Y948100D02*
X165359Y948100D01*
X165359Y958100D01*
G54D10*
X165359Y970100D02*
X165359Y980100D01*
X152359Y980100D01*
G54D10*
X152359Y968100D02*
X152359Y960100D01*
G54D11*
X154465Y956875D02*
X163354Y956875D01*
G54D11*
X156131Y965319D02*
X155020Y964652D01*
X154465Y963319D01*
X154465Y961986D01*
X155020Y960652D01*
X156131Y959986D01*
X161687Y959986D01*
X162798Y960652D01*
X163354Y961986D01*
X163354Y963319D01*
X162798Y964652D01*
X161687Y965319D01*
G54D11*
X160020Y968430D02*
X163354Y971763D01*
X154465Y971763D01*
M02*
