%FSLAX34Y34*%
%MOMM*%
%LNSMDMASK_TOP*%
G71*
G01*
%ADD10R,0.700X2.200*%
%ADD11R,2.200X0.700*%
%ADD12R,1.300X1.400*%
%ADD13R,3.300X1.400*%
%LPD*%
X168859Y964100D02*
G54D10*
D03*
X156159Y964100D02*
G54D10*
D03*
X143459Y964100D02*
G54D10*
D03*
X130759Y964100D02*
G54D10*
D03*
X130759Y910100D02*
G54D10*
D03*
X143459Y910100D02*
G54D10*
D03*
X156159Y910100D02*
G54D10*
D03*
X168859Y910100D02*
G54D10*
D03*
X101000Y894834D02*
G54D11*
D03*
X101000Y907534D02*
G54D11*
D03*
X101000Y920234D02*
G54D11*
D03*
X101000Y932934D02*
G54D11*
D03*
X101000Y945634D02*
G54D11*
D03*
X101000Y958334D02*
G54D11*
D03*
X101000Y971034D02*
G54D11*
D03*
X101000Y983734D02*
G54D11*
D03*
X27000Y983734D02*
G54D11*
D03*
X27000Y971034D02*
G54D11*
D03*
X27000Y958334D02*
G54D11*
D03*
X27000Y945634D02*
G54D11*
D03*
X27000Y932934D02*
G54D11*
D03*
X27000Y920234D02*
G54D11*
D03*
X27000Y907534D02*
G54D11*
D03*
X27000Y894834D02*
G54D11*
D03*
X146520Y986859D02*
G54D12*
D03*
X165520Y986859D02*
G54D12*
D03*
X18726Y986864D02*
G54D13*
D03*
X18726Y938842D02*
G54D13*
D03*
X18726Y913839D02*
G54D13*
D03*
X18726Y891614D02*
G54D13*
D03*
X18726Y964639D02*
G54D13*
D03*
M02*
