%FSLAX34Y34*%
%MOMM*%
%LNCOPPER_BOTTOM*%
G71*
G01*
%ADD10C,0.150*%
%ADD11R,3.200X1.400*%
%ADD12R,2.000X1.300*%
%ADD13R,1.300X1.400*%
%ADD14R,1.600X1.300*%
%ADD15R,2.000X1.600*%
%ADD16R,0.900X0.800*%
%ADD17C,0.200*%
%LPD*%
G36*
X164539Y983128D02*
X174539Y983128D01*
X174539Y973128D01*
X164539Y973128D01*
X164539Y983128D01*
G37*
G36*
X117311Y915659D02*
X127311Y915659D01*
X127311Y905659D01*
X117311Y905659D01*
X117311Y915659D01*
G37*
G36*
X46270Y988684D02*
X56270Y988684D01*
X56270Y978684D01*
X46270Y978684D01*
X46270Y988684D01*
G37*
G36*
X74448Y964475D02*
X84448Y964475D01*
X84448Y954475D01*
X74448Y954475D01*
X74448Y964475D01*
G37*
G36*
X74578Y945528D02*
X84578Y945528D01*
X84578Y935528D01*
X74578Y935528D01*
X74578Y945528D01*
G37*
G36*
X26267Y988050D02*
X8408Y988050D01*
X8408Y976540D01*
X26267Y976540D01*
X26267Y988050D01*
G37*
G54D10*
X26267Y988050D02*
X8408Y988050D01*
X8408Y976540D01*
X26267Y976540D01*
X26267Y988050D01*
G36*
X26267Y934869D02*
X8408Y934869D01*
X8408Y923360D01*
X26267Y923360D01*
X26267Y934869D01*
G37*
G54D10*
X26267Y934869D02*
X8408Y934869D01*
X8408Y923360D01*
X26267Y923360D01*
X26267Y934869D01*
G36*
X108817Y987653D02*
X90958Y987653D01*
X90958Y976143D01*
X108817Y976143D01*
X108817Y987653D01*
G37*
G54D10*
X108817Y987653D02*
X90958Y987653D01*
X90958Y976143D01*
X108817Y976143D01*
X108817Y987653D01*
G36*
X108817Y934472D02*
X90958Y934472D01*
X90958Y922963D01*
X108817Y922963D01*
X108817Y934472D01*
G37*
G54D10*
X108817Y934472D02*
X90958Y934472D01*
X90958Y922963D01*
X108817Y922963D01*
X108817Y934472D01*
X18324Y981700D02*
G54D11*
D03*
X18329Y928921D02*
G54D11*
D03*
X128717Y891028D02*
G54D12*
D03*
X128617Y928628D02*
G54D12*
D03*
X62332Y896372D02*
G54D13*
D03*
X43332Y896372D02*
G54D13*
D03*
X160495Y895995D02*
G54D14*
D03*
X160495Y914995D02*
G54D14*
D03*
X127260Y950682D02*
G54D15*
D03*
X127260Y978682D02*
G54D15*
D03*
X148859Y954100D02*
G54D16*
D03*
X148859Y974100D02*
G54D16*
D03*
X168859Y964100D02*
G54D16*
D03*
G54D17*
X26267Y976540D02*
X26267Y968206D01*
X43332Y951538D01*
X43332Y896372D01*
G54D17*
X169630Y962159D02*
X169779Y948916D01*
X160014Y939234D01*
X160495Y914995D01*
G54D17*
X127260Y950682D02*
X127260Y954777D01*
X143459Y964100D01*
X156159Y964100D01*
X169630Y962159D01*
G54D17*
X127260Y950682D02*
X106770Y950682D01*
X98498Y942409D01*
X98498Y928122D01*
X99292Y927328D01*
G54D17*
X76670Y961459D02*
X79448Y961459D01*
X98498Y942409D01*
G36*
X164242Y928313D02*
X170242Y928313D01*
X170242Y922313D01*
X164242Y922313D01*
X164242Y928313D01*
G37*
G54D17*
X95720Y983684D02*
X51270Y983684D01*
G54D17*
X101000Y983734D02*
X71164Y983734D01*
G54D17*
X122311Y910659D02*
X119136Y910659D01*
X107229Y898753D01*
X64714Y898753D01*
X62332Y896372D01*
G54D17*
X149630Y952159D02*
X149630Y938772D01*
X143345Y932488D01*
X143345Y905656D01*
X128717Y891028D01*
G54D17*
X64020Y983734D02*
X64020Y936406D01*
X85401Y914628D01*
X108617Y914628D01*
X121617Y927628D01*
G54D17*
X149630Y972159D02*
X153664Y974556D01*
X172333Y974540D01*
X177873Y969397D01*
X177873Y905897D01*
X167554Y895975D01*
G54D17*
X127260Y978682D02*
X120086Y978682D01*
X111992Y970588D01*
X74289Y970588D01*
X69923Y967016D01*
X69923Y950182D01*
X79578Y940528D01*
G36*
X76000Y892834D02*
X86000Y892834D01*
X86000Y882834D01*
X76000Y882834D01*
X76000Y892834D01*
G37*
G54D17*
X81000Y887834D02*
X122514Y887834D01*
X123501Y886847D01*
G54D17*
X167242Y925313D02*
X167242Y921742D01*
X160495Y914995D01*
M02*
