%FSLAX34Y34*%
%MOMM*%
%LNSOLDERMASK_TOP*%
G71*
G01*
%ADD10C,2.000*%
%ADD11C,2.120*%
%ADD12C,2.100*%
%ADD13C,1.700*%
%ADD14C,2.480*%
%ADD15C,2.400*%
%ADD16R,1.800X1.800*%
%LPD*%
G54D10*
X292325Y927345D02*
X278325Y927345D01*
G54D10*
X292325Y901945D02*
X278325Y901945D01*
G54D10*
X292325Y876545D02*
X278325Y876545D01*
G54D10*
X292325Y851145D02*
X278325Y851145D01*
G54D10*
X292325Y825745D02*
X278325Y825745D01*
G54D10*
X292325Y800345D02*
X278325Y800345D01*
G54D10*
X292325Y774945D02*
X278325Y774945D01*
G54D10*
X368525Y774945D02*
X354525Y774945D01*
G54D10*
X368525Y800345D02*
X354525Y800345D01*
G54D10*
X368525Y825745D02*
X354525Y825745D01*
G54D10*
X368525Y851145D02*
X354525Y851145D01*
G54D10*
X368525Y876545D02*
X354525Y876545D01*
G54D10*
X368525Y901945D02*
X354525Y901945D01*
G54D10*
X368525Y927345D02*
X354525Y927345D01*
X191720Y800150D02*
G54D11*
D03*
X166320Y812850D02*
G54D11*
D03*
X191720Y825550D02*
G54D11*
D03*
X166320Y838250D02*
G54D11*
D03*
X191720Y850950D02*
G54D11*
D03*
X166320Y863650D02*
G54D12*
D03*
X191720Y876350D02*
G54D11*
D03*
X166320Y889050D02*
G54D11*
D03*
X476200Y876250D02*
G54D11*
D03*
X450800Y863550D02*
G54D11*
D03*
X476200Y850850D02*
G54D11*
D03*
X450800Y838150D02*
G54D11*
D03*
X476200Y825450D02*
G54D11*
D03*
X450800Y812750D02*
G54D11*
D03*
X476200Y800050D02*
G54D11*
D03*
X330200Y812800D02*
G54D13*
D03*
X241300Y901700D02*
G54D13*
D03*
X221420Y812850D02*
G54D13*
D03*
G54D14*
X152400Y974600D02*
X152400Y955800D01*
G54D14*
X190500Y974600D02*
X190500Y955800D01*
X450800Y888950D02*
G54D11*
D03*
X311150Y975360D02*
G54D15*
D03*
X336550Y975360D02*
G54D15*
D03*
X342900Y952500D02*
G54D13*
D03*
X381000Y977900D02*
G54D16*
D03*
X409000Y977900D02*
G54D16*
D03*
X444500Y977900D02*
G54D16*
D03*
X472500Y977900D02*
G54D16*
D03*
M02*
