%FSLAX34Y34*%
%MOMM*%
%LNCOPPER_TOP*%
G71*
G01*
%ADD10C,2.200*%
%ADD11C,2.320*%
%ADD12C,2.300*%
%ADD13C,1.900*%
%ADD14C,1.200*%
%ADD15C,2.680*%
%ADD16C,4.600*%
%ADD17C,2.600*%
%ADD18C,1.400*%
%ADD19R,2.400X2.400*%
%ADD20C,1.500*%
%ADD21C,0.910*%
%ADD22C,0.793*%
%ADD23C,0.807*%
%ADD24C,0.882*%
%ADD25C,0.770*%
%ADD26C,0.730*%
%ADD27C,0.861*%
%ADD28C,0.709*%
%ADD29C,1.360*%
%ADD30C,1.002*%
%ADD31C,0.875*%
%ADD32C,1.520*%
%ADD33C,1.500*%
%ADD34C,1.100*%
%ADD35C,0.400*%
%ADD36C,1.880*%
%ADD37C,1.800*%
%ADD38C,0.600*%
%ADD39R,1.600X1.600*%
%ADD40C,0.700*%
%LPD*%
G36*
X0Y1000000D02*
X646000Y1000000D01*
X646000Y663000D01*
X0Y663000D01*
X0Y1000000D01*
G37*
%LPC*%
G54D10*
X292325Y927345D02*
X278325Y927345D01*
G54D10*
X292325Y901945D02*
X278325Y901945D01*
G54D10*
X292325Y876545D02*
X278325Y876545D01*
G54D10*
X292325Y851145D02*
X278325Y851145D01*
G54D10*
X292325Y825745D02*
X278325Y825745D01*
G54D10*
X292325Y800345D02*
X278325Y800345D01*
G54D10*
X292325Y774945D02*
X278325Y774945D01*
G54D10*
X368525Y774945D02*
X354525Y774945D01*
G54D10*
X368525Y800345D02*
X354525Y800345D01*
G54D10*
X368525Y825745D02*
X354525Y825745D01*
G54D10*
X368525Y851145D02*
X354525Y851145D01*
G54D10*
X368525Y876545D02*
X354525Y876545D01*
G54D10*
X368525Y901945D02*
X354525Y901945D01*
G54D10*
X368525Y927345D02*
X354525Y927345D01*
X191720Y800150D02*
G54D11*
D03*
X166320Y812850D02*
G54D11*
D03*
X191720Y825550D02*
G54D11*
D03*
X166320Y838250D02*
G54D11*
D03*
X191720Y850950D02*
G54D11*
D03*
X166320Y863650D02*
G54D12*
D03*
X191720Y876350D02*
G54D11*
D03*
X166320Y889050D02*
G54D11*
D03*
X476200Y876250D02*
G54D11*
D03*
X450800Y863550D02*
G54D11*
D03*
X476200Y850850D02*
G54D11*
D03*
X450800Y838150D02*
G54D11*
D03*
X476200Y825450D02*
G54D11*
D03*
X450800Y812750D02*
G54D11*
D03*
X476200Y800050D02*
G54D11*
D03*
X330200Y812800D02*
G54D13*
D03*
G54D14*
X330200Y812800D02*
X450750Y812800D01*
X450800Y812750D01*
G54D14*
X191720Y800150D02*
X191720Y801320D01*
X228600Y838200D01*
X241300Y838200D01*
X241300Y901700D01*
X241300Y901700D02*
G54D13*
D03*
X221420Y812850D02*
G54D13*
D03*
G54D14*
X221420Y812850D02*
X241350Y812850D01*
X266700Y838200D01*
X317500Y838200D01*
X330200Y850900D01*
X361281Y850900D01*
X361525Y851145D01*
G54D14*
X285325Y825745D02*
X317745Y825745D01*
X330200Y838200D01*
X450750Y838200D01*
X450800Y838150D01*
G54D15*
X152400Y974600D02*
X152400Y955800D01*
G54D15*
X190500Y974600D02*
X190500Y955800D01*
X104140Y900430D02*
G54D16*
D03*
X104140Y788670D02*
G54D16*
D03*
X539750Y788670D02*
G54D16*
D03*
X539750Y901700D02*
G54D16*
D03*
X588010Y697230D02*
G54D16*
D03*
X588010Y961390D02*
G54D16*
D03*
X57150Y695960D02*
G54D16*
D03*
X57150Y962660D02*
G54D16*
D03*
X450800Y888950D02*
G54D11*
D03*
X311150Y975360D02*
G54D17*
D03*
X336550Y975360D02*
G54D17*
D03*
X342900Y952500D02*
G54D13*
D03*
G54D18*
X190500Y965200D02*
X190500Y913230D01*
X166320Y889050D01*
G54D18*
X190500Y965200D02*
X254000Y965200D01*
X266700Y952500D01*
X342900Y952500D01*
X342900Y945970D01*
X361525Y927345D01*
X381000Y977900D02*
G54D19*
D03*
X409000Y977900D02*
G54D19*
D03*
X444500Y977900D02*
G54D19*
D03*
X472500Y977900D02*
G54D19*
D03*
G54D20*
X336550Y975360D02*
X378460Y975360D01*
X381000Y977900D01*
G54D20*
X409000Y977900D02*
X444500Y977900D01*
%LPD*%
G54D21*
G36*
X285325Y931895D02*
X303825Y931895D01*
X303825Y922795D01*
X285325Y922795D01*
X285325Y931895D01*
G37*
G36*
X285325Y922795D02*
X266825Y922795D01*
X266825Y931895D01*
X285325Y931895D01*
X285325Y922795D01*
G37*
G36*
X280775Y927345D02*
X280775Y938845D01*
X289875Y938845D01*
X289875Y927345D01*
X280775Y927345D01*
G37*
G54D22*
G36*
X285325Y855112D02*
X303825Y855112D01*
X303825Y847178D01*
X285325Y847178D01*
X285325Y855112D01*
G37*
G36*
X285325Y847178D02*
X266825Y847178D01*
X266825Y855112D01*
X285325Y855112D01*
X285325Y847178D01*
G37*
G36*
X281358Y851145D02*
X281358Y862645D01*
X289292Y862645D01*
X289292Y851145D01*
X281358Y851145D01*
G37*
G54D23*
G36*
X285325Y778982D02*
X303825Y778982D01*
X303825Y770908D01*
X285325Y770908D01*
X285325Y778982D01*
G37*
G36*
X289362Y774945D02*
X289362Y763445D01*
X281288Y763445D01*
X281288Y774945D01*
X289362Y774945D01*
G37*
G36*
X285325Y770908D02*
X266825Y770908D01*
X266825Y778982D01*
X285325Y778982D01*
X285325Y770908D01*
G37*
G54D24*
G36*
X361525Y830155D02*
X380025Y830155D01*
X380025Y821335D01*
X361525Y821335D01*
X361525Y830155D01*
G37*
G36*
X361525Y821335D02*
X343025Y821335D01*
X343025Y830155D01*
X361525Y830155D01*
X361525Y821335D01*
G37*
G54D21*
G36*
X361525Y906495D02*
X380025Y906495D01*
X380025Y897395D01*
X361525Y897395D01*
X361525Y906495D01*
G37*
G36*
X366075Y901945D02*
X366075Y890445D01*
X356975Y890445D01*
X356975Y901945D01*
X366075Y901945D01*
G37*
G36*
X361525Y897395D02*
X343025Y897395D01*
X343025Y906495D01*
X361525Y906495D01*
X361525Y897395D01*
G37*
G54D25*
G36*
X166320Y834399D02*
X154220Y834399D01*
X154220Y842101D01*
X166320Y842101D01*
X166320Y834399D01*
G37*
G36*
X162469Y838250D02*
X162469Y850350D01*
X170171Y850350D01*
X170171Y838250D01*
X162469Y838250D01*
G37*
G36*
X166320Y842101D02*
X178420Y842101D01*
X178420Y834399D01*
X166320Y834399D01*
X166320Y842101D01*
G37*
G36*
X170171Y838250D02*
X170171Y826150D01*
X162469Y826150D01*
X162469Y838250D01*
X170171Y838250D01*
G37*
G54D26*
G36*
X166320Y860000D02*
X154320Y860000D01*
X154320Y867300D01*
X166320Y867300D01*
X166320Y860000D01*
G37*
G36*
X162670Y863650D02*
X162670Y875650D01*
X169970Y875650D01*
X169970Y863650D01*
X162670Y863650D01*
G37*
G36*
X166320Y867300D02*
X178320Y867300D01*
X178320Y860000D01*
X166320Y860000D01*
X166320Y867300D01*
G37*
G36*
X169970Y863650D02*
X169970Y851650D01*
X162670Y851650D01*
X162670Y863650D01*
X169970Y863650D01*
G37*
G54D27*
G36*
X476200Y855157D02*
X488300Y855157D01*
X488300Y846543D01*
X476200Y846543D01*
X476200Y855157D01*
G37*
G36*
X480507Y850850D02*
X480507Y838750D01*
X471893Y838750D01*
X471893Y850850D01*
X480507Y850850D01*
G37*
G36*
X476200Y846543D02*
X464100Y846543D01*
X464100Y855157D01*
X476200Y855157D01*
X476200Y846543D01*
G37*
G36*
X471893Y850850D02*
X471893Y862950D01*
X480507Y862950D01*
X480507Y850850D01*
X471893Y850850D01*
G37*
G54D28*
G36*
X476200Y828997D02*
X488300Y828997D01*
X488300Y821903D01*
X476200Y821903D01*
X476200Y828997D01*
G37*
G36*
X479747Y825450D02*
X479747Y813350D01*
X472653Y813350D01*
X472653Y825450D01*
X479747Y825450D01*
G37*
G36*
X476200Y821903D02*
X464100Y821903D01*
X464100Y828997D01*
X476200Y828997D01*
X476200Y821903D01*
G37*
G36*
X472653Y825450D02*
X472653Y837550D01*
X479747Y837550D01*
X479747Y825450D01*
X472653Y825450D01*
G37*
G54D29*
G36*
X145601Y965200D02*
X145601Y988500D01*
X159199Y988500D01*
X159199Y965200D01*
X145601Y965200D01*
G37*
G36*
X152400Y971999D02*
X166300Y971999D01*
X166300Y958401D01*
X152400Y958401D01*
X152400Y971999D01*
G37*
G36*
X159199Y965200D02*
X159199Y941900D01*
X145601Y941900D01*
X145601Y965200D01*
X159199Y965200D01*
G37*
G36*
X152400Y958401D02*
X138500Y958401D01*
X138500Y971999D01*
X152400Y971999D01*
X152400Y958401D01*
G37*
G54D30*
G36*
X306140Y975360D02*
X306140Y988860D01*
X316160Y988860D01*
X316160Y975360D01*
X306140Y975360D01*
G37*
G36*
X311150Y980370D02*
X324650Y980370D01*
X324650Y970350D01*
X311150Y970350D01*
X311150Y980370D01*
G37*
G36*
X316160Y975360D02*
X316160Y961860D01*
X306140Y961860D01*
X306140Y975360D01*
X316160Y975360D01*
G37*
G36*
X311150Y970350D02*
X297650Y970350D01*
X297650Y980370D01*
X311150Y980370D01*
X311150Y970350D01*
G37*
G54D31*
G36*
X468127Y977900D02*
X468127Y990400D01*
X476874Y990400D01*
X476874Y977900D01*
X468127Y977900D01*
G37*
G36*
X472500Y982273D02*
X485000Y982273D01*
X485000Y973526D01*
X472500Y973526D01*
X472500Y982273D01*
G37*
G36*
X476874Y977900D02*
X476874Y965400D01*
X468127Y965400D01*
X468127Y977900D01*
X476874Y977900D01*
G37*
G36*
X472500Y973526D02*
X460000Y973526D01*
X460000Y982273D01*
X472500Y982273D01*
X472500Y973526D01*
G37*
G54D18*
X292325Y927345D02*
X278325Y927345D01*
G54D18*
X292325Y901945D02*
X278325Y901945D01*
G54D18*
X292325Y876545D02*
X278325Y876545D01*
G54D18*
X292325Y851145D02*
X278325Y851145D01*
G54D18*
X292325Y825745D02*
X278325Y825745D01*
G54D18*
X292325Y800345D02*
X278325Y800345D01*
G54D18*
X292325Y774945D02*
X278325Y774945D01*
G54D18*
X368525Y774945D02*
X354525Y774945D01*
G54D18*
X368525Y800345D02*
X354525Y800345D01*
G54D18*
X368525Y825745D02*
X354525Y825745D01*
G54D18*
X368525Y851145D02*
X354525Y851145D01*
G54D18*
X368525Y876545D02*
X354525Y876545D01*
G54D18*
X368525Y901945D02*
X354525Y901945D01*
G54D18*
X368525Y927345D02*
X354525Y927345D01*
X191720Y800150D02*
G54D32*
D03*
X166320Y812850D02*
G54D32*
D03*
X191720Y825550D02*
G54D32*
D03*
X166320Y838250D02*
G54D32*
D03*
X191720Y850950D02*
G54D32*
D03*
X166320Y863650D02*
G54D33*
D03*
X191720Y876350D02*
G54D32*
D03*
X166320Y889050D02*
G54D32*
D03*
X476200Y876250D02*
G54D32*
D03*
X450800Y863550D02*
G54D32*
D03*
X476200Y850850D02*
G54D32*
D03*
X450800Y838150D02*
G54D32*
D03*
X476200Y825450D02*
G54D32*
D03*
X450800Y812750D02*
G54D32*
D03*
X476200Y800050D02*
G54D32*
D03*
X330200Y812800D02*
G54D34*
D03*
G54D35*
X330200Y812800D02*
X450750Y812800D01*
X450800Y812750D01*
G54D35*
X191720Y800150D02*
X191720Y801320D01*
X228600Y838200D01*
X241300Y838200D01*
X241300Y901700D01*
X241300Y901700D02*
G54D34*
D03*
X221420Y812850D02*
G54D34*
D03*
G54D35*
X221420Y812850D02*
X241350Y812850D01*
X266700Y838200D01*
X317500Y838200D01*
X330200Y850900D01*
X361281Y850900D01*
X361525Y851145D01*
G54D35*
X285325Y825745D02*
X317745Y825745D01*
X330200Y838200D01*
X450750Y838200D01*
X450800Y838150D01*
G54D36*
X152400Y974600D02*
X152400Y955800D01*
G54D36*
X190500Y974600D02*
X190500Y955800D01*
X450800Y888950D02*
G54D32*
D03*
X311150Y975360D02*
G54D37*
D03*
X336550Y975360D02*
G54D37*
D03*
X342900Y952500D02*
G54D34*
D03*
G54D38*
X190500Y965200D02*
X190500Y913230D01*
X166320Y889050D01*
G54D38*
X190500Y965200D02*
X254000Y965200D01*
X266700Y952500D01*
X342900Y952500D01*
X342900Y945970D01*
X361525Y927345D01*
X381000Y977900D02*
G54D39*
D03*
X409000Y977900D02*
G54D39*
D03*
X444500Y977900D02*
G54D39*
D03*
X472500Y977900D02*
G54D39*
D03*
G54D40*
X336550Y975360D02*
X378460Y975360D01*
X381000Y977900D01*
G54D40*
X409000Y977900D02*
X444500Y977900D01*
M02*
