; Drill file
; Format: 2.4 (00.0000)
M48
INCH
T01C0.0079
T02C0.0236
T03C0.0283
T04C0.0346
T05C0.0354
T06C0.0394
T07C0.1496
%
G05
G90
T01
X008720Y032000
X009500Y035500
X013500Y037500
X013000Y032000
T02
X012250Y038400
X013250Y038400
T03
X011230Y030510
X011230Y031510
X011230Y032510
X011230Y033510
X011230Y034510
X011230Y035510
X011230Y036510
X014230Y036510
X014230Y035510
X014230Y034510
X014230Y033510
X014230Y032510
X014230Y031510
X014230Y030510
T04
X006550Y032000
X006550Y033000
X007550Y032500
X007550Y033500
X007550Y034500
X006550Y035000
X007550Y031500
X017750Y032000
X017750Y033000
X017750Y034000
X017750Y035000
X018750Y034500
X018750Y033500
X018750Y032500
X018750Y031500
T05
X006550Y034000
T06
X006000Y038000
X007500Y038000
T07
X002250Y027400
X004100Y031050
X004100Y035450
X002250Y037900
X021250Y035500
X023150Y037850
X021250Y031050
X023150Y027450
M30
